<svg xmlns="http://www.w3.org/2000/svg" width="512" height="512" viewBox="0 0 512 512">
  <metadata><?xpacket begin="﻿" id="W5M0MpCehiHzreSzNTczkc9d"?>
<x:xmpmeta xmlns:x="adobe:ns:meta/" x:xmptk="Adobe XMP Core 5.6-c138 79.159824, 2016/09/14-01:09:01        ">
   <rdf:RDF xmlns:rdf="http://www.w3.org/1999/02/22-rdf-syntax-ns#">
      <rdf:Description rdf:about=""
            xmlns:xmp="http://ns.adobe.com/xap/1.0/">
         <xmp:CreatorTool>Adobe Photoshop CC 2017 (Windows)</xmp:CreatorTool>
      </rdf:Description>
   </rdf:RDF>
</x:xmpmeta>
                                                                                                    
                                                                                                    
                                                                                                    
                                                                                                    
                                                                                                    
                                                                                                    
                                                                                                    
                                                                                                    
                                                                                                    
                                                                                                    
                                                                                                    
                                                                                                    
                                                                                                    
                                                                                                    
                                                                                                    
                                                                                                    
                                                                                                    
                                                                                                    
                                                                                                    
                                                                                                    
                           
<?xpacket end="w"?></metadata>
<defs>
    <style>
      .cls-1, .cls-2 {
        fill-rule: evenodd;
      }

      .cls-2 {
        fill: #fff;
      }
    </style>
  </defs>
  <path id="形状_1" data-name="形状 1" class="cls-1" d="M256,509.011s14.569-15.558,42.382-15.558c104.653,0,152.323-17.22,188.09-79.481C541.715,317.8,474.554,260.3,474.554,200.686c0-43.71,34.431-91.39,34.431-91.39L403.349,1.989c-59.274,46.36-98.343,34.446-147.349,0-49.012,34.446-88.08,46.36-147.355,0L3.009,109.3s34.437,47.68,34.437,91.39c0,59.612-67.161,117.115-11.925,213.286,35.769,62.261,83.443,79.481,188.091,79.481C241.432,493.453,256,509.011,256,509.011Z"/>
  <path id="S" class="cls-2" d="M407.8,80.1q0-7.691-6.266-11.393-3.705-2.276-19.653-7.121-10.542-18.225-17.09-18.229-4.273,0-14.242,3.7A534.477,534.477,0,0,0,287.6,73.829q-8.832,4.272-8.83,9.684,0,5.7,8.545,5.7a24.521,24.521,0,0,0,7.69-1.424Q331.752,74.4,342.86,72.69a50,50,0,0,1,9.4-1.139q10.534,0,10.539,13.387,0,12.817-8.83,35.319-9.4,23.644-16.805,25.919-9.974,2.564-9.969,8.545,0,3.993,5.7,7.691,18.512,12.249,25.919,12.247,7.69,0,16.236-12.817,19.079-28.766,30.192-67.79A50.927,50.927,0,0,0,407.8,80.1h0ZM279.058,260.109q-41.016-76.618-41.016-109.945,0-29.907,21.932-50.7,5.127-4.84,5.127-9.4,0-6.549-7.691-6.551a15.922,15.922,0,0,0-9.684,3.7q-26.488,19.941-37.028,34.465a65.954,65.954,0,0,0-12.532,39.591q0,33.9,40.873,112.366t40.873,104.675q0,47.571-35.034,47.852-39.594.286-88.3-35.034T92.778,314.8a37,37,0,0,0,1.424-9.114q0-8.546-6.551-8.545-6.836,0-18.8,10.538-12.817,11.109-12.817,19.938,0,7.124,16.235,34.75,17.09,29.626,61.809,61.523Q186.2,461.2,228.643,461.769q23.925,0.281,39.021-23.356,52.406-31.329,52.409-82.886Q320.073,336.728,279.058,260.109Z"/>
</svg>
